# xmcd CD database file
#
# Track frame offsets:
#	150
#	10355
#	23273
#	40355
#	50698
#	62285
#	73068
#	86193
#	112893
#	123265
#	137173
#	151448
#	161855
#	171533
#	180425
#	190618
#
# Disc length: 2659 seconds
#
# Revision: 0
# Processed by: cddbd v1.4PL0 Copyright (c) Steve Scherf et al.
# Submitted via: CDex 1.50
#
DISCID=d40a6110
DTITLE=Johnny Winter - Jack Daniels Kind of Day
DYEAR=1992
DGENRE=Country
TTITLE0=Sloppy Drunk
TTITLE1=The Mistress
TTITLE2=Careful With a Fool
TTITLE3=Shed So Many Tears
TTITLE4=Eternally
TTITLE5=Raining Teardrops
TTITLE6=Jack Daniels Kind of Day
TTITLE7=Going Down Slow
TTITLE8=Stay By My Side
TTITLE9=We Go Back Quite a Ways
TTITLE10=Low Down Gal of Mine
TTITLE11=Thirty-Two Twenty Blues
TTITLE12=Silvery Moon
TTITLE13=I Had to Cry
TTITLE14=Gonna Miss Me When I'm Gone
TTITLE15=Crazie Baby
EXTD=YEAR: 1992
EXTT0=
EXTT1=
EXTT2=
EXTT3=
EXTT4=
EXTT5=
EXTT6=
EXTT7=
EXTT8=
EXTT9=
EXTT10=
EXTT11=
EXTT12=
EXTT13=
EXTT14=
EXTT15=
PLAYORDER=
